<svg width="368" height="236" viewBox="0 0 368 236" fill="none" xmlns="http://www.w3.org/2000/svg">
<path fill-rule="evenodd" clip-rule="evenodd" d="M16 16H352V220H16V16ZM0 0H16H352H368V16V220V236H352H16H0V220V16V0ZM78.65 88H67.58V151H79.73V111.13L95.75 139.57H99.17C100.37 139.57 101.42 139.24 102.32 138.58C103.28 137.86 104.21 136.69 105.11 135.07L118.34 111.13V151H130.49V88H119.42L99.26 125.44L78.65 88ZM212.6 123.82C211.28 121.72 209.39 119.95 206.93 118.51C209.03 117.13 210.65 115.48 211.79 113.56C212.93 111.64 213.5 109.57 213.5 107.35V103.75C213.5 100.51 212.69 97.66 211.07 95.2C209.45 92.68 207.14 90.73 204.14 89.35C201.2 87.97 197.81 87.28 193.97 87.28H185.24C178.88 87.28 173.9 89.11 170.3 92.77C166.76 96.43 164.99 101.53 164.99 108.07H177.5C177.5 104.95 178.16 102.55 179.48 100.87C180.86 99.13 182.78 98.26 185.24 98.26H193.97C196.07 98.26 197.78 98.77 199.1 99.79C200.42 100.75 201.08 102.07 201.08 103.75V107.35C201.08 109.15 200.39 110.62 199.01 111.76C197.63 112.84 195.8 113.38 193.52 113.38H182V124.18H193.52C196.1 124.18 198.2 124.75 199.82 125.89C201.44 127.03 202.25 128.53 202.25 130.39V133.99C202.25 136.03 201.47 137.68 199.91 138.94C198.35 140.14 196.31 140.74 193.79 140.74H185.06C182.42 140.74 180.38 139.9 178.94 138.22C177.5 136.48 176.78 134.05 176.78 130.93H164.54C164.54 137.47 166.34 142.57 169.94 146.23C173.6 149.89 178.64 151.72 185.06 151.72H193.79C197.93 151.72 201.56 151 204.68 149.56C207.86 148.06 210.32 145.96 212.06 143.26C213.8 140.56 214.67 137.47 214.67 133.99V130.39C214.67 128.11 213.98 125.92 212.6 123.82ZM258.074 149.02C261.314 150.82 265.034 151.72 269.234 151.72H278.774C282.974 151.72 286.664 150.82 289.844 149.02C293.024 147.16 295.484 144.55 297.224 141.19C298.964 137.83 299.834 133.96 299.834 129.58V109.42C299.834 105.04 298.934 101.17 297.134 97.81C295.394 94.45 292.934 91.87 289.754 90.07C286.574 88.21 282.914 87.28 278.774 87.28H269.234C264.974 87.28 261.224 88.21 257.984 90.07C254.744 91.87 252.224 94.45 250.424 97.81C248.684 101.17 247.814 105.04 247.814 109.42V129.58C247.814 133.96 248.714 137.83 250.514 141.19C252.314 144.55 254.834 147.16 258.074 149.02ZM284.894 137.77C283.334 139.75 281.234 140.74 278.594 140.74H269.414C266.654 140.74 264.434 139.75 262.754 137.77C261.074 135.73 260.234 133.06 260.234 129.76V109.24C260.234 105.94 261.074 103.3 262.754 101.32C264.434 99.28 266.654 98.26 269.414 98.26H278.594C281.234 98.26 283.334 99.28 284.894 101.32C286.514 103.3 287.324 105.94 287.324 109.24V129.76C287.324 133.06 286.514 135.73 284.894 137.77Z" fill="white"/>
</svg>
