<svg width="1275" height="502" viewBox="0 0 1275 502" fill="none" xmlns="http://www.w3.org/2000/svg">
<path d="M694.066 246.104C693.875 245.817 693.683 245.53 692.783 245.128C658.001 245.015 623.927 245.016 589.853 245.018C586.929 250.071 583.999 255.12 581.083 260.176C576.699 267.775 572.221 275.323 567.98 283.001C564.92 288.542 562.171 294.254 559.302 299.899C555.506 307.365 551.944 314.96 547.875 322.274C544.753 327.886 541.004 333.148 536.711 339.849C534.354 336.679 531.977 334.087 530.293 331.104C524.998 321.722 519.887 312.233 514.852 302.708C510.806 295.053 507.106 287.215 503.015 279.585C497.911 270.064 492.701 260.59 487.205 251.292C486.08 249.39 486.815 245.378 481.85 245.788C478.598 245.398 476.122 245.031 473.645 245.028C443.381 244.994 413.117 245.013 382.853 245.018C382.566 246.937 382.034 248.855 382.03 250.774C381.976 278.105 382.024 305.436 381.932 332.767C381.925 334.841 381.044 336.912 380.57 338.985C380.01 339.161 379.45 339.337 378.89 339.513C375.297 335.902 370.507 332.879 368.376 328.548C364.717 321.11 358.522 316.24 353.185 310.523C345.362 302.144 337.879 293.111 328.764 286.367C318.593 278.841 308.774 270.342 295.873 266.775C290.603 265.318 286.479 260.122 281.3 257.841C272.7 254.052 263.671 251.236 254.817 248.025C251.391 246.782 247.97 245.522 244.512 244.374C241.042 243.221 237.592 241.858 234.02 241.198C228.555 240.187 222.972 239.836 217.479 238.958C210.37 237.823 203.3 236.445 196.212 235.175C195.885 235.116 195.552 235.091 195.222 235.054C172.351 232.445 149.377 232.522 126.443 233.202C115.383 233.53 104.366 235.635 93.3522 237.107C84.5623 238.282 75.7285 239.338 67.0597 241.145C59.2358 242.776 51.6347 245.45 43.8892 247.488C35.2156 249.771 26.5013 251.904 17.7816 254.006C14.4587 254.807 11.0898 255.689 7.7068 255.866C5.66777 255.973 3.56128 254.795 1.48511 254.194C2.4018 251.844 2.70364 248.868 4.34528 247.256C10.3479 241.361 16.6808 235.785 23.1097 230.349C29.8858 224.619 36.7877 219.021 43.8667 213.672C51.3526 208.016 59.1641 202.793 66.7364 197.248C73.4268 192.349 79.9018 187.154 86.6316 182.311C90.4096 179.593 94.5956 177.446 98.4322 174.802C100.392 173.451 101.799 171.284 103.78 169.978C113.03 163.876 122.353 157.881 131.728 151.97C140.794 146.254 149.871 140.547 159.098 135.096C168.967 129.265 178.929 123.58 189.008 118.122C200.322 111.996 211.694 105.955 223.258 100.323C233.998 95.0919 244.955 90.2832 255.95 85.6033C263.338 82.4591 270.979 79.9176 278.469 77.0069C286.025 74.0702 293.473 70.8469 301.079 68.0495C309.17 65.0739 317.342 62.2957 325.57 59.7263C331.444 57.8921 337.497 56.641 343.421 54.9549C349.817 53.1342 356.114 50.9552 362.535 49.2354C366.156 48.2656 369.949 47.9508 373.65 47.263C383.052 45.5157 392.494 43.9448 401.83 41.8942C413.14 39.4101 424.706 39.262 436.064 37.7C462.074 34.123 488.089 37.1892 514.062 36.01C516.791 35.8861 518.064 36.9898 517.938 39.7896C517.834 42.1178 517.647 44.4959 517.983 46.7804C519.132 54.5929 520.461 62.3799 521.794 70.1642C522.368 73.5221 522.972 76.8887 523.833 80.1804C524.798 83.869 525.875 87.5536 527.258 91.1011C528.967 95.482 530.99 99.7445 532.971 104.014C536.695 112.038 539.958 120.338 544.388 127.955C549.542 136.818 555.191 145.519 561.634 153.473C569.032 162.605 576.969 171.476 585.717 179.291C594.907 187.501 605.138 194.609 615.282 201.67C624.025 207.756 632.777 213.998 643.251 217.088C645.183 217.658 646.848 219.137 648.636 220.197C648.839 219.806 649.042 219.415 649.244 219.024C640.971 214.112 632.541 209.442 624.482 204.199C619.625 201.039 615.169 197.186 610.847 193.296C603.019 186.25 595.469 178.897 587.721 171.76C580.026 164.672 573.901 156.343 568.036 147.751C565.238 143.652 560.94 140.349 558.992 135.946C554.264 125.262 546.296 116.391 542.744 105.041C540.136 96.7086 536.147 88.8187 533.118 80.6049C531.641 76.6016 531.191 72.2296 529.86 68.1608C525.841 55.8793 528.858 43.2848 527.975 30.8707C527.582 25.3444 529.309 20.2737 533.001 16.2194C536.776 12.0748 541.371 9.36089 547.06 7.7983C560.949 3.98359 574.965 6.54097 588.888 6.25283C595.481 6.11638 602.143 8.50516 608.747 9.87516C619.92 12.1928 631.151 14.2975 642.207 17.0893C650.284 19.1289 658.094 22.2046 666.072 24.6631C669.415 25.6935 672.882 26.3224 677.29 27.3708C672.776 25.1657 669.274 23.4496 665.768 21.743C661.152 19.4966 656.383 17.5117 651.984 14.9017C649.974 13.7095 648.691 11.2916 647.079 9.42963C647.388 8.82362 647.697 8.21761 648.005 7.6116C657.738 6.39339 667.479 5.22638 677.194 3.88072C678.207 3.74048 679.072 2.54162 679.972 1.41699C707.292 1.00004 734.646 1.00004 762.408 1.41675C764.087 2.5513 765.3 3.73927 766.641 3.9075C773.264 4.73847 779.915 5.3709 786.568 5.93832C795.414 6.6928 804.272 7.31135 813.122 8.00897C821.473 8.66715 829.822 9.34999 838.17 10.0306C838.661 10.0706 839.152 10.1605 839.632 10.2728C846.349 11.843 853.011 13.7165 859.794 14.9103C865.985 16 872.33 16.1799 878.561 17.0791C886.338 18.2014 894.068 19.6511 901.82 20.9537C902.306 21.0355 902.811 21.0232 903.291 21.1303C909.054 22.417 914.806 23.7478 920.575 25.0052C924.709 25.9061 928.883 26.6292 933.004 27.5802C942.104 29.6799 951.162 31.9673 960.28 33.9874C964.566 34.9371 968.999 35.2322 973.276 36.2143C977.689 37.2276 981.96 38.8396 986.352 39.964C991.871 41.3773 997.476 42.4602 1003 43.8713C1009.19 45.454 1015.29 47.4064 1021.5 48.8992C1027.96 50.4509 1034.57 51.3704 1040.98 53.0694C1048.2 54.982 1055.25 57.5267 1062.42 59.6645C1068.06 61.3509 1073.79 62.7769 1079.45 64.4269C1087.9 66.8893 1096.33 69.4141 1104.75 71.9752C1111.02 73.8828 1117.27 75.8803 1123.52 77.8552C1128.91 79.5607 1134.32 81.243 1139.69 83.0234C1145.06 84.8017 1150.44 86.5499 1155.72 88.5734C1159.82 90.1449 1163.66 92.4088 1167.79 93.8577C1177.89 97.3961 1188.22 100.29 1198.2 104.111C1206.53 107.3 1214.55 111.331 1222.6 115.191C1227.81 117.687 1234.27 118.057 1237.7 123.679C1238.3 124.672 1239.14 126.086 1238.85 126.962C1237.84 129.953 1236.28 132.752 1235.14 135.703C1234.61 137.068 1234.55 138.615 1234.28 140.079C1235.61 139.377 1235.59 138.398 1235.93 137.567C1237.56 133.581 1237.67 128.185 1242.97 127.111C1246.82 126.331 1251.23 125.88 1254.86 127.001C1262.39 129.326 1269.83 132.375 1274.94 139C1274.94 145.688 1274.94 152.375 1274.94 159.532C1274.29 160.779 1273.39 161.457 1273.02 162.353C1270.76 167.929 1268.8 173.633 1266.4 179.143C1262.38 188.347 1258.74 197.804 1253.74 206.467C1249.33 214.125 1244.61 222.018 1235.91 226.117C1234.12 226.961 1232.98 229.188 1231.19 230.024C1225.77 232.552 1220.29 235.048 1214.63 236.922C1208.4 238.981 1201.95 240.378 1195.58 241.981C1190.06 243.368 1184.5 244.568 1178.99 245.98C1172.27 247.702 1165.59 249.565 1158.89 251.355C1157.94 251.61 1156.98 251.837 1156.02 252.019C1148.91 253.357 1141.83 254.789 1134.7 255.971C1129.55 256.826 1123.78 256.178 1119.29 258.305C1113.77 260.916 1107.45 258.133 1102.25 262.433C1099.86 264.418 1095.53 264.131 1092.06 264.746C1087.48 265.557 1082.86 266.146 1078.29 267.005C1072.48 268.096 1066.71 269.368 1060.91 270.55C1056.84 271.38 1052.8 272.334 1048.7 272.973C1043.42 273.796 1038.04 274.037 1032.83 275.127C1027.85 276.169 1023.03 277.976 1018.14 279.457C1018 279.501 1017.91 279.74 1017.77 279.77C1011.22 281.193 1004.65 282.508 998.136 284.046C993.566 285.125 989.081 286.561 984.532 287.734C981.308 288.566 978.068 289.398 974.786 289.919C969.55 290.751 964.23 291.095 959.03 292.085C955.211 292.812 951.464 294.072 947.794 295.399C941.058 297.835 934.388 300.461 927.717 303.075C922.271 305.21 918.922 313.355 921.492 318.608C924.077 323.892 927.166 328.935 929.654 334.261C931.592 338.408 932.948 342.827 935.204 348.833C919.051 349.246 904.291 349.674 889.528 349.977C882.868 350.114 876.197 349.811 869.542 350.037C853.026 350.599 836.498 351.083 820.013 352.171C814.341 352.546 808.782 354.624 803.167 355.904C802.689 356.013 802.163 355.908 801.686 356.016C796.62 357.167 791.484 358.088 786.518 359.579C781.459 361.098 776.676 363.591 771.581 364.93C762.857 367.223 755.568 372.1 748.264 376.968C743.886 379.885 739.246 382.758 735.764 386.594C729.16 393.87 723.563 402.054 717.033 409.405C713.446 413.444 708.85 416.598 704.632 420.058C702.91 421.471 700.929 422.566 699.169 423.939C697.181 425.49 695.486 426.51 694.939 421.95C694.937 365.008 694.946 308.945 694.898 252.881C694.896 250.622 694.356 248.363 694.066 246.104ZM663.102 179.637C663.401 179.937 663.699 180.236 663.998 180.536C664.14 180.165 664.281 179.795 664.423 179.425C663.87 179.357 663.318 179.289 663.103 178.522C658.151 171.643 652.973 164.911 648.386 157.797C646.999 155.646 647.253 152.437 646.756 149.713C649.203 149.89 651.655 150.025 654.097 150.26C655.784 150.423 657.459 150.725 659.851 151.067C652.3 138.587 640.755 130.171 634.237 117.693C646.435 114.674 655.031 121.605 664.908 124.936C664.352 122.969 663.392 121.436 662.349 119.961C659.592 116.06 656.464 112.375 654.129 108.239C652.294 104.987 654.632 101.34 658.147 102.2C663.519 103.513 668.579 106.105 674.203 108.509C675.005 108.754 675.808 108.999 676.61 109.244C676.662 108.967 676.715 108.69 676.767 108.413C675.753 108.349 674.738 108.285 674.026 107.523C672.68 105.693 671.666 103.424 669.928 102.115C664.369 97.93 658.462 94.2109 652.834 90.1127C639.125 80.1288 623.966 72.7764 608.497 66.1359C600.595 62.7441 592.124 60.6835 583.919 57.9958C578.548 56.2364 573.191 54.4315 568.087 52.7331C564.161 61.1345 565.963 68.1956 568.832 74.9254C571.475 81.1239 575.63 86.7351 577.826 93.0542C582.281 105.867 592.024 115.003 599.701 125.452C605.953 133.961 614.574 140.742 622.225 148.207C625.93 151.822 629.712 155.373 633.65 158.729C639.053 163.333 644.451 167.987 650.212 172.115C654.099 174.901 658.61 176.816 663.102 179.637ZM990.609 109.698C985.349 108.792 980.065 108 974.835 106.945C970.027 105.975 965.249 104.823 960.508 103.563C956.58 102.52 952.794 100.827 948.821 100.097C943.071 99.0411 937.2 98.6611 931.399 97.8665C927.053 97.2713 922.709 96.603 918.41 95.7401C912.79 94.6122 907.262 92.9591 901.609 92.0837C895.076 91.072 888.451 90.665 881.868 89.9796C881.382 89.9291 880.916 89.7049 880.43 89.6399C874.765 88.8815 869.097 88.1381 863.431 87.3907C865.845 89.0171 868.289 89.7394 870.68 90.6088C873.601 91.6714 876.443 93.6675 879.382 93.7928C883.39 93.9636 885.607 96.5241 886.799 99.0742C892.936 112.21 904.744 117.164 917.342 120.878C924.008 122.843 930.898 124.807 937.77 125.159C952.173 125.898 966.635 125.812 981.063 125.546C986.048 125.455 991.045 122.9 995.966 123.113C1004.06 123.464 1011.47 122.316 1018.83 117.669C1017.37 116.713 1016.19 115.427 1014.81 115.126C1006.94 113.422 999.023 111.955 990.609 109.698ZM877.871 280.582C872.013 286.589 875.258 293.203 877.013 299.429C878.52 304.774 881.089 309.818 883.288 315.241C882.813 307.798 881.985 300.796 882.084 293.808C882.132 290.439 883.509 286.892 885.02 283.784C887.556 278.569 891.331 274.492 896.813 271.834C907.401 266.7 917.739 261.051 928.222 255.698C931.471 254.039 934.856 252.646 938.179 251.131C915.331 254.924 895.775 265.349 877.871 280.582ZM666.58 127.021C666.422 126.826 666.263 126.631 666.105 126.436C666.143 126.674 666.18 126.911 666.58 127.021Z" fill="#880000"/>
<path d="M486.271 502C485.938 455.542 485.938 409.084 485.943 362.626C485.943 361.128 485.818 359.593 486.112 358.148C486.264 357.4 487.1 356.548 487.833 356.255C488.259 356.084 489.308 356.773 489.706 357.337C493.472 362.669 497.322 367.954 500.812 373.465C503.472 377.664 505.41 382.321 508.081 386.511C515.846 398.697 523.84 410.736 531.695 422.864C533.755 426.046 535.638 429.342 537.601 432.584C554.169 407.027 570.566 381.735 587.23 356.031C590.553 355.789 591.045 358.38 591.027 361.492C590.967 371.649 590.915 381.806 590.916 391.964C590.92 426.6 590.964 461.236 590.92 495.873C590.918 497.634 590.232 499.394 589.902 501.577C588.871 502 587.805 502 585.955 501.848C583.196 501.467 581.221 501.041 579.245 501.038C551.098 500.994 522.952 500.985 494.805 501.05C492.515 501.056 490.227 501.669 487.938 502C487.493 502 487.049 502 486.271 502Z" fill="#880000"/>
</svg>
