<svg width="642" height="636" viewBox="0 0 642 636" fill="none" xmlns="http://www.w3.org/2000/svg">
<path d="M18.4019 320.463C19.7178 297.217 23.6194 274.87 29.9911 252.971C35.5662 233.81 42.8804 215.325 52.1405 197.617C53.5865 194.852 55.0482 194.202 58.3493 194.481C66.7917 195.197 75.3129 194.95 83.7999 195.187C88.4401 195.317 93.0994 195.446 97.6974 196.007C99.1461 196.183 100.996 197.454 101.689 198.747C107.101 208.842 112.363 219.021 117.426 229.295C118.156 230.777 118.236 233.239 117.504 234.683C107.367 254.67 100.409 275.702 96.5794 297.749C93.4153 315.965 91.9738 334.31 93.9837 352.769C94.1115 353.943 96.081 355.652 97.3882 355.854C136.492 361.902 164.06 389.361 170.047 428.555C173.079 448.404 168.77 466.818 158.606 483.943C156.531 487.441 155.052 490.018 159.082 493.617C173.483 506.477 188.087 519.046 205.089 528.382C230.594 542.386 257.335 553.033 286.696 555.04C298.897 555.874 311.202 555.179 324.342 555.179C320.92 561.626 317.77 567.728 314.465 573.745C310.868 580.293 306.948 586.671 303.589 593.335C302.843 594.815 303.263 597.513 304.15 599.084C310.348 610.071 316.82 620.904 323.172 631.805C323.804 632.891 324.217 634.106 324.524 634.796C313.801 634.796 303.155 635.544 292.649 634.648C266.622 632.429 241.212 626.845 216.621 617.977C178.044 604.064 143.271 583.745 113.647 555.177C104.455 546.311 96.0189 536.664 87.1043 527.504C85.8726 526.238 83.9098 525.039 82.227 524.952C42.4985 522.921 10.1275 494.492 2.72318 456.531C-2.13544 431.621 3.20886 408.899 18.4225 388.862C21.9706 384.189 21.1243 380.242 20.8885 375.61C19.9605 357.379 19.1313 339.143 18.4019 320.463ZM37.3014 430.988C35.5602 430.988 33.8189 430.988 31.8353 430.988C31.8353 437.758 31.7684 443.72 31.9193 449.676C31.9383 450.428 33.1015 451.15 33.7346 451.886C34.211 451.158 35.0322 450.46 35.098 449.697C35.285 447.528 35.1636 445.332 35.1636 443.291C42.1477 442.952 40.4023 453.326 48.0811 451.604C46.0068 448.24 44.1452 445.22 43.0723 443.48C44.0817 439.88 46.0413 436.712 45.1599 435.057C44.0836 433.037 40.6223 432.287 37.3014 430.988ZM53.0946 451.926C55.904 451.504 59.7281 453.615 61.3116 448.76C57.974 448.215 54.0924 451.036 52.1322 446.141C55.5944 445.967 58.6671 445.811 61.6717 445.66C62.1423 439.704 60.6621 437.424 56.4696 436.992C52.6763 436.601 49.9673 438.077 48.6738 441.657C47.1313 445.926 48.1392 449.421 53.0946 451.926ZM82.7678 450.859C84.0001 451.275 85.2324 451.691 87.0077 452.291C87.0077 448.07 87.5621 444.344 86.7662 440.932C86.3868 439.306 83.5956 437.631 81.6137 437.154C79.4222 436.626 76.1677 436.227 75.9502 439.918C78.6373 440.335 81.0897 440.715 83.5421 441.096C83.4669 441.565 83.3917 442.034 83.3165 442.503C81.0892 443.051 78.7372 443.311 76.6635 444.213C73.4225 445.621 73.0198 449.906 76.0674 451.236C77.7672 451.978 80.0918 451.287 82.7678 450.859ZM125.07 437.049C124.076 437.029 123.077 436.941 122.088 437.001C117.463 437.281 114.952 440.034 114.984 444.733C115.017 449.585 117.458 452.43 122.353 451.814C125.023 451.478 128.812 449.648 129.663 447.519C131.163 443.768 131.016 439.188 125.07 437.049ZM73.6891 429.662C64.547 426.493 67.6373 436.25 65.101 437.715C65.4943 441.836 65.6055 444.884 66.1458 447.853C66.408 449.295 67.4735 450.59 68.1754 451.952C68.7603 450.639 69.6936 449.37 69.8617 448.007C70.2862 444.564 68.4009 440.436 73.4489 438.734C68.7365 434.897 68.7795 434.364 73.5638 431.33C73.7658 431.202 73.7526 430.735 73.6891 429.662ZM112.886 439.402C111.576 437.351 110.336 435.245 108.861 433.321C108.69 433.099 106.953 433.644 106.385 434.248C105.167 435.542 104.238 437.108 103.191 438.563C103.676 438.488 104.161 438.412 104.646 438.336C105.1 441.38 105.339 444.478 106.094 447.444C106.494 449.014 107.489 450.87 108.784 451.636C109.806 452.24 111.697 451.376 114.148 451.031C108.987 447.253 108.585 442.309 112.886 439.402ZM91.0536 440.75C89.3631 445.868 90.7116 450.723 94.607 451.609C97.1502 452.187 100.801 453.552 102.398 448.473C98.042 449.243 93.8709 449.639 94.0636 444.277C94.2394 439.381 98.1517 439.674 103.117 440.689C101.693 438.807 100.849 437.133 100.435 437.234C97.3831 437.974 94.4172 439.068 91.0536 440.75ZM142.169 437.206C139.622 437.206 137.075 437.206 134.255 437.206C134.255 442.014 134.255 446.74 134.255 451.467C134.631 451.764 135.007 452.062 135.382 452.359C136.223 451.383 137.804 450.388 137.779 449.435C137.658 444.934 137.592 440.674 142.777 438.699C142.864 438.666 142.74 438.08 142.169 437.206Z" fill="#5892F8"/>
<path d="M90.2311 143.225C119.989 107.329 155.924 79.98 197.973 60.8677C210.591 55.1325 224.013 51.181 236.979 46.1833C239.408 45.2468 242.174 43.7032 243.499 41.6215C252.659 27.2389 264.587 16.0594 280.193 9.08227C307.239 -3.0093 333.734 -1.52018 359.445 13.0302C371.065 19.6065 380.055 29.0369 387.55 40.0207C388.513 41.431 390.58 42.4853 392.327 42.9016C415.515 48.4264 437.554 56.9696 458.632 68.0121C506.917 93.3079 545.467 129.126 575.119 174.868C580.239 182.767 580.934 189.204 576.915 197.512C572.752 206.117 569.899 215.365 566.652 224.397C565.626 227.252 564.038 228.158 561.092 227.749C546.815 225.767 532.509 223.988 518.245 221.911C516.625 221.675 514.641 220.372 513.784 218.975C490.906 181.7 460.085 152.992 421.111 133.191C412.306 128.718 402.969 125.292 393.632 121.279C377.335 152.406 352.297 170.085 317.599 170.735C283.094 171.381 257.462 154.908 240.02 124.581C189.596 144.709 150.839 178.168 123.837 226.104C118.782 215.562 113.414 205.542 109.164 195.068C106.606 188.762 103.42 186.379 96.4287 186.803C84.5137 187.526 72.523 187.002 60.217 187.002C68.2963 171.665 78.7187 157.296 90.2311 143.225ZM322.982 103.981C322.982 103.981 322.945 103.931 323.264 104.693C322.387 110.886 317.754 108.672 313.823 108.608C313.997 109.724 313.805 111.074 314.338 111.485C318.025 114.332 326.464 111.214 326.852 106.636C327.311 101.234 326.96 95.7637 326.96 90.5429C324.349 90.3471 321.988 90.2085 319.635 89.9841C316.391 89.6746 313.626 90.9164 313.217 94.0722C312.826 97.0852 312.768 101.168 314.47 103.106C315.865 104.693 320.063 103.816 322.982 103.981ZM278.032 62.0764C279.199 66.349 280.365 70.6215 281.704 75.5232C283.409 74.8542 285.754 74.6131 286.044 73.7115C288.078 67.383 289.687 60.9183 291.432 54.4972C290.826 54.2524 290.219 54.0076 289.612 53.7628C284.544 56.9436 286.965 64.1126 283.964 67.7365C279.695 64.0986 283.767 55.7579 275.723 53.4906C274.15 59.0672 272.846 63.6876 271.484 68.5153C267.442 64.2622 270.921 56.1931 262.668 53.1542C264.666 60.385 266.163 66.2758 268.001 72.0579C268.379 73.2464 270.035 74.7755 271.103 74.7765C272.067 74.7773 273.352 73.0497 273.922 71.8187C274.745 70.0405 274.926 67.9765 275.614 66.1205C276.22 64.4831 277.145 62.9637 278.032 62.0764ZM333.803 74.6744C334.309 73.7282 334.815 72.782 335.537 71.4335C331.869 71.6359 328.602 73.6491 326.686 69.1553C330.129 68.9809 333.042 68.8333 337.611 68.6018C335.729 65.2381 334.934 61.9685 332.907 60.7512C331.14 59.69 327.327 60.0905 325.617 61.4049C323.76 62.832 322.179 66.1912 322.447 68.4769C322.981 73.0242 324.314 75.9384 333.803 74.6744ZM359.826 90.3173C356.205 89.5385 352.296 89.5286 350.704 93.2003C349.612 95.7175 349.643 99.3881 350.632 101.987C352.173 106.034 356.371 105.221 359.775 104.782C360.745 104.657 361.53 103.094 363.097 101.466C358.909 101.549 355.551 103.782 353.779 99.1649C357.097 98.9842 360.018 98.8251 364.333 98.5901C362.8 95.4549 361.656 93.1174 359.826 90.3173ZM351.035 66.3723C348.116 67.0712 345.917 68.6403 346.936 71.875C347.347 73.1793 349.289 74.6983 350.677 74.8537C353.605 75.1817 356.626 74.6754 359.608 74.5C360.674 63.5885 359.421 60.2365 354.181 59.9851C349.607 59.7657 348.515 60.5315 348.581 63.9134C351.197 63.4005 354.237 61.0518 355.94 65.7432C354.415 65.8884 353.116 66.0121 351.035 66.3723ZM263.231 96.0238C261.623 96.3473 259.647 96.2083 258.505 97.1168C257.207 98.1487 255.945 100.147 256.009 101.669C256.057 102.824 258.116 104.687 259.438 104.836C262.484 105.18 265.626 104.671 268.686 104.511C269.429 93.1484 268.379 90.3171 263.413 89.9867C258.898 89.6863 257.781 90.3869 257.436 93.796C258.841 93.5064 260.36 92.7449 261.574 93.0823C262.579 93.3618 263.224 94.9375 263.231 96.0238ZM295.986 98.4577C295.986 100.57 295.986 102.682 295.986 104.795C296.543 105.034 297.1 105.274 297.658 105.514C298.411 104.409 299.533 103.394 299.826 102.178C300.205 100.608 299.579 98.7806 300.021 97.2463C300.46 95.717 301.684 94.4131 302.564 93.0104C303.698 94.374 305.454 95.5893 305.823 97.1358C306.38 99.4653 305.968 102.026 305.968 104.464C310.075 104.666 310.075 104.666 309.92 99.078C309.673 90.1299 308.11 89.1567 295.986 90.6201C295.986 92.8907 295.986 95.1994 295.986 98.4577ZM250.982 82.0759C249.016 85.3536 246.092 88.4343 245.365 91.967C244.702 95.1929 246.238 98.9581 247.187 102.38C247.5 103.509 249.005 104.308 249.966 105.258C250.356 104.903 250.747 104.548 251.137 104.193C251.137 100.571 251.137 96.9497 251.137 93.6833C252.616 92.9688 253.706 92.4422 254.796 91.9155C253.933 91.2482 253.035 90.6209 252.214 89.9059C249.82 87.8221 251.014 86.3924 253.055 84.9878C253.802 84.4741 254.284 83.5766 254.887 82.8542C253.855 82.5696 252.824 82.2849 250.982 82.0759ZM311.167 62.4478C311.806 64.6128 312.779 66.7415 313.019 68.9498C313.653 74.7964 315.561 76.1124 320.119 74.2249C318.769 70.8854 317.407 67.5184 316.109 64.3093C318.59 62.9727 319.916 62.2581 320.816 61.7732C318.787 59.5745 317.27 57.9309 315.101 55.5796C313.757 57.5774 312.394 59.6034 311.167 62.4478ZM347.251 102.218C341.759 100.95 344.918 96.6521 344.019 93.8219C345.586 92.9944 346.913 92.2934 348.24 91.5923C348.534 90.8931 348.827 90.1938 349.121 89.4945C343.831 91.7401 344.286 88.0499 342.792 84.5828C340.772 87.5554 338.26 89.5839 338.283 91.5829C338.325 95.2143 339.646 98.9125 340.926 102.402C341.35 103.558 343.222 104.665 344.559 104.843C345.538 104.973 346.724 103.549 347.251 102.218ZM365.504 104.027C367.558 104.338 369.73 105.199 371.629 104.79C373.243 104.442 375.472 102.796 375.719 101.418C375.965 100.042 374.321 98.0588 373.067 96.767C372.051 95.7197 370.385 95.3026 369.007 94.606C369.053 94.2159 369.1 93.8258 369.146 93.4357C371.09 93.1712 373.033 92.9066 374.976 92.6421C374.272 91.016 373.001 89.8938 372.027 90.11C369.808 90.6023 366.616 91.1699 365.802 92.7369C362.696 98.714 371.032 97.4672 372.156 101.666C370.623 101.808 369.375 101.802 368.189 102.069C367.147 102.303 366.174 102.843 365.504 104.027ZM378.789 92.9955C379.188 95.43 379.735 97.8513 379.956 100.302C380.372 104.928 382.753 106.121 387.125 103.741C382.682 98.8464 382.676 96.1012 386.847 91.4169C385.465 89.6732 384.131 87.9894 382.753 86.25C380.328 87.1624 377.625 90.7639 378.789 92.9955ZM280.006 94.4852C280.012 96.9799 280.097 99.4774 280.005 101.968C279.887 105.143 281.271 105.555 283.744 104.501C283.744 96.929 283.744 89.6577 283.744 82.3864C283.352 82.0919 282.96 81.7975 282.568 81.503C281.722 82.5085 280.268 83.4455 280.145 84.5326C279.812 87.4878 280.043 90.5065 280.006 94.4852ZM294.569 74.8089C297.932 75.7156 297.902 73.6147 297.966 71.2275C298.057 67.8544 296.507 63.5332 302.135 62.7823C302.452 62.74 302.995 61.5031 302.817 61.2427C302.438 60.6869 301.673 60.11 301.032 60.0686C298.845 59.9274 296.644 60.0145 294.085 60.0145C294.085 64.8452 294.085 69.4409 294.569 74.8089ZM276.016 92.7913C275.247 91.8707 274.478 90.9501 273.709 90.0295C273.167 90.8662 272.205 91.6796 272.157 92.5438C271.973 95.848 271.88 99.1882 272.2 102.472C272.303 103.527 273.782 104.448 274.631 105.431C275.093 105.146 275.556 104.861 276.018 104.576C276.018 100.961 276.018 97.3459 276.016 92.7913ZM287.982 99.392C287.982 101.171 287.982 102.95 287.982 104.728C288.604 104.852 289.226 104.976 289.847 105.1C294.203 102.064 291.084 96.8689 291.773 92.8243C291.925 91.9298 290.181 90.7122 289.311 89.6434C288.868 89.9513 288.425 90.2592 287.982 90.5672C287.982 93.1938 287.982 95.8205 287.982 99.392ZM307.404 60.029C306.601 60.7473 305.145 61.429 305.102 62.1898C304.872 66.296 304.993 70.4218 304.993 76.1817C306.982 74.5734 308.757 73.8102 308.772 73.0131C308.854 68.7608 308.495 64.4999 307.404 60.029Z" fill="#D55353"/>
<path d="M553.524 526.004C545.241 534.916 537.633 543.955 529.198 552.144C511.219 569.601 491.056 584.167 469.232 596.572C444.055 610.883 417.364 621.224 389.173 627.321C374.075 630.586 358.446 631.347 343.28 634.362C335.374 635.933 332.215 632.799 328.862 626.619C323.447 616.637 317.061 607.183 311.194 597.441C310.621 596.489 310.264 594.796 310.72 593.927C317.175 581.642 324.153 569.617 330.211 557.144C333.312 550.758 338.941 551.708 343.706 551.166C383.239 546.672 418.604 531.695 450.481 508.458C461.8 500.207 471.813 490.164 482.399 480.959C475.085 466.425 471.2 451.978 472.084 436.679C473.262 416.31 480.188 398.203 494.269 382.967C505.822 370.466 519.504 361.881 536.067 357.82C537.234 357.534 538.845 355.8 538.889 354.686C539.414 341.506 539.835 328.317 539.973 315.128C540.133 299.805 537.112 284.869 532.874 270.278C529.076 257.203 524.19 244.443 519.528 230.793C523.397 231.18 527.534 231.467 531.635 232.028C542.73 233.545 553.814 235.153 564.893 236.786C567.246 237.133 568.859 236.785 569.893 234.247C574.497 222.953 579.267 211.727 583.984 200.479C584.606 198.996 585.272 197.532 585.918 196.06C586.408 195.961 586.899 195.863 587.389 195.765C591.299 204.361 595.441 212.86 599.072 221.572C606.953 240.478 613.031 259.988 616.569 280.167C618.589 291.684 619.785 303.362 620.933 315.009C621.679 322.586 622.214 330.262 621.88 337.85C621.292 351.221 619.879 364.554 619.049 377.917C618.926 379.906 619.502 382.497 620.759 383.926C632.347 397.1 638.821 412.4 641.159 429.722C646.027 465.801 626.623 499.124 596.164 515.414C584.521 521.64 571.728 524.173 558.598 525.02C556.998 525.123 555.416 525.498 553.524 526.004ZM512.068 421.719C512.894 420.029 513.721 418.339 515.199 415.318C515.199 421.098 515.199 425.38 515.199 429.662C515.648 429.932 516.096 430.202 516.544 430.472C517.367 429.444 518.86 428.442 518.901 427.383C519.131 421.427 519.012 415.457 519.012 409.243C516.989 409.243 515.396 409.243 513.631 409.243C511.662 414.068 509.686 418.912 507.499 424.273C505.31 418.907 503.332 414.061 501.369 409.25C499.587 409.25 497.998 409.25 496.281 409.25C496.281 416.263 496.281 423.011 496.281 430.993C502.643 427.377 498.002 421.32 500.84 417.299C502.079 420.57 503.028 423.539 504.339 426.338C504.981 427.708 506.295 428.763 507.305 429.96C508.25 428.827 509.335 427.781 510.101 426.537C510.871 425.286 511.323 423.838 512.068 421.719ZM562.995 465.087C563.73 465.714 564.466 466.341 565.202 466.969C566.039 464.557 566.876 462.145 567.758 459.601C568.065 459.664 568.942 460.141 569.577 459.92C571.876 459.12 575.321 458.644 576.063 457.013C577.27 454.361 577.59 450.53 576.529 447.907C575.874 446.289 572.02 445.728 569.496 445.18C567.55 444.758 565.439 445.096 562.979 445.096C562.979 451.618 562.979 457.893 562.995 465.087ZM593.073 414.813C593.073 412.357 593.073 409.901 593.073 407.445C592.526 407.173 591.98 406.9 591.433 406.628C590.62 407.757 589.156 408.857 589.106 410.019C588.861 415.669 589.057 421.336 588.972 426.996C588.922 430.316 590.352 430.575 593.007 429.276C593.007 427.321 593.064 425.492 592.994 423.669C592.892 420.989 593.227 418.16 596.456 418.348C597.404 418.403 598.456 421.822 598.904 423.824C599.32 425.681 598.993 427.704 598.993 430.214C600.67 429.801 602.58 429.519 602.573 429.304C602.427 425.074 602.652 420.657 601.366 416.75C600.991 415.612 596.175 415.936 593.073 414.813ZM546.67 416.015C545.731 417.249 544.793 418.483 542.907 420.961C542.907 416.852 542.921 414.283 542.905 411.715C542.876 407.124 542.869 407.124 539.175 407.775C539.175 415.022 539.175 422.277 539.175 429.532C539.634 429.812 540.093 430.092 540.552 430.372C541.682 428.782 542.811 427.193 543.87 425.702C548.913 430.04 548.913 430.04 552.238 429.423C546.62 422.29 546.62 422.29 551.732 414.89C549.902 415.131 548.548 415.31 546.67 416.015ZM607.065 417.558C604.718 421.105 604.211 425.103 607.574 427.75C609.685 429.412 613.255 429.436 616.213 429.671C617.089 429.74 618.107 428.028 619.656 426.571C615.58 426.258 612.057 428.966 609.832 424.149C613.399 423.991 616.483 423.854 621.057 423.652C619.364 420.406 618.593 416.542 616.696 415.874C614.121 414.968 610.685 416.507 607.065 417.558ZM532.698 415.381C525.548 414.423 524.186 414.902 523.604 418.575C529.779 417.953 529.779 417.953 530.794 420.455C529.063 420.912 526.964 420.909 525.714 421.938C524.17 423.208 523.333 425.335 522.19 427.093C523.918 428.071 525.549 429.562 527.395 429.906C529.995 430.392 532.753 430.029 537.068 430.029C535.685 424.771 534.519 420.337 532.698 415.381ZM588.552 458.419C589.767 459.019 590.981 459.619 592.196 460.219C592.746 459.869 593.297 459.518 593.847 459.168C592.788 454.762 592.329 450.049 590.321 446.129C589.677 444.873 584.926 445.543 582.086 445.759C581.601 445.795 581.279 447.988 580.677 449.798C584.103 448.158 586.821 446.222 588.606 450.353C585.867 451.101 583.439 451.304 581.583 452.44C580.425 453.149 579.246 455.617 579.662 456.667C580.231 458.101 582.171 459.375 583.786 459.881C584.918 460.237 586.489 459.196 588.552 458.419ZM520.858 453.913C523.13 453.913 525.402 453.913 527.61 453.913C528.179 448.005 526.61 445.464 522.536 445.004C517.751 444.464 514.542 446.747 513.988 451.086C513.344 456.122 515.391 459.758 519.427 459.896C522.126 459.988 525.911 461.347 527.287 456.501C524.419 456.677 522.34 456.974 520.289 456.841C519.557 456.794 518.893 455.708 518.197 455.096C518.797 454.706 519.397 454.316 520.858 453.913ZM567.014 420.768C565.698 415.732 563.158 414.038 558.429 415.044C554.695 415.838 552.302 419.996 553.076 424.346C553.875 428.832 556.809 430.744 562.385 429.899C563.762 429.691 564.946 428.207 566.218 427.309C565.913 426.946 565.607 426.582 565.301 426.219C562.389 426.884 559.233 428.466 557.267 423.907C559.786 423.907 561.978 424.154 564.072 423.805C565.144 423.626 566.04 422.381 567.014 420.768ZM608.192 457.151C608.871 462.57 612.983 459.597 615.417 459.69C616.817 459.744 618.964 457.683 619.511 456.129C619.844 455.181 617.975 453.172 616.733 452.035C615.505 450.912 613.822 450.287 612.339 449.443C612.393 449.087 612.448 448.73 612.502 448.373C614.585 448.245 616.668 448.117 619.922 447.917C618.458 446.585 617.495 445.052 616.754 445.153C614.139 445.51 610.353 445.608 609.256 447.278C605.329 453.254 613.86 452.654 615.288 457.052C612.707 456.854 610.677 456.698 608.192 457.151ZM597.063 452.484C598.77 453.623 600.476 454.761 602.183 455.899C602.018 456.214 601.853 456.528 601.687 456.842C599.613 456.842 597.538 456.842 593.793 456.842C595.626 458.416 596.479 459.775 597.479 459.893C600.764 460.28 604.883 460.799 606.173 457C607.995 451.635 601.462 452.033 598.774 448.386C601.606 448.228 603.686 448.112 606.727 447.943C605.609 446.67 604.838 445.134 604.213 445.192C601.525 445.439 598.742 445.846 596.318 446.922C595.736 447.181 596.395 450.233 597.063 452.484ZM544.213 442.756C543.46 444.06 542.707 445.363 542.631 445.495C543.534 449.987 544.012 453.389 544.929 456.669C546.047 460.664 548.272 461.138 551.936 458.455C547.733 454.818 547.728 451.273 551.892 446.225C550.896 445.162 549.38 444.259 549.016 443.017C548.01 439.594 546.352 441.089 544.213 442.756ZM534.426 457.08C533.031 456.975 531.637 456.87 528.684 456.647C530.455 458.38 531.397 459.973 532.102 459.875C534.923 459.479 539.168 459.419 540.171 457.674C543.554 451.787 535.731 452.143 533.565 448.333C535.997 448.333 537.814 448.333 541.348 448.333C539.482 446.637 538.408 444.988 537.693 445.132C535.147 445.642 532.584 446.532 530.382 447.866C529.989 448.104 530.965 451.35 531.926 452.797C532.511 453.677 534.444 453.558 535.435 454.324C535.828 454.628 535.311 456.11 534.426 457.08ZM582.768 429.99C584.165 429.79 585.562 429.59 586.958 429.389C587.135 428.998 587.313 428.607 587.49 428.216C581.838 426.559 582.744 422.556 583.298 418.679C584.556 418.06 585.814 417.442 587.273 416.724C583.024 412.277 579.348 409.482 576.771 415.493C577.737 418.621 578.276 420.667 579.004 422.644C579.901 425.082 580.956 427.463 582.768 429.99ZM509.021 450.661C510.273 449.19 511.525 447.719 512.667 446.377C509.049 441.919 505.419 439.578 502.881 446.588C503.937 449.006 504.755 451.526 504.924 454.089C505.296 459.747 507.53 461.21 512.012 459.194C510.994 456.588 510.006 454.057 509.021 450.661Z" fill="#6AAB77"/>
<path d="M275 302.11C275 299.981 275 298.337 275 296.403C285.906 296.403 296.486 296.163 307.05 296.482C314.937 296.72 322.413 299.122 328.953 303.571C338.101 309.793 341.954 319.26 342.868 329.773C343.864 341.232 342.057 352.123 334.395 361.554C327.64 369.868 318.946 374.698 308.658 375.85C297.803 377.066 286.8 376.971 275 377.487C275 352.073 275 327.334 275 302.11ZM320.265 313.167C312.087 307.317 302.69 307.124 293.167 307.032C289.163 306.993 287.99 308.299 288.046 312.225C288.246 326.055 287.988 339.89 288.161 353.721C288.341 368.086 285.469 365.9 300.609 365.753C308.464 365.677 316.227 363.699 321.652 357.397C332.076 345.29 331.567 325.866 320.265 313.167Z" fill="#8B8B8B"/>
<path d="M423.207 319.99C427.45 337.652 426.233 353.611 412.185 366.493C404.777 373.285 395.628 376.115 386.008 376.841C376.929 377.526 367.757 376.988 358.249 376.988C358.249 349.986 358.249 323.31 358.249 296.075C374.103 296.291 390.096 294.129 405.343 300.173C414.249 303.703 420.267 310.31 423.207 319.99ZM370.996 336.5C370.996 346.221 370.996 355.941 370.996 365.753C385.884 366.201 400.214 366.635 407.815 351.783C413.719 340.248 413.844 327.749 406.04 317.067C397.444 305.299 384.038 307.211 370.996 307.158C370.996 316.96 370.996 326.23 370.996 336.5Z" fill="#8B8B8B"/>
<path d="M240.132 343C240.132 354.458 240.132 365.416 240.132 376.684C235.636 376.684 231.572 376.684 227.028 376.684C227.028 353.654 227.028 330.752 227.028 307.219C219.198 307.219 211.813 307.219 204.159 307.219C204.159 303.325 204.159 300.054 204.159 296.391C223.51 296.391 242.902 296.391 262.715 296.391C262.715 299.64 262.715 303.015 262.715 307.031C255.386 307.031 248 307.031 240.132 307.031C240.132 319.272 240.132 330.886 240.132 343Z" fill="#8B8B8B"/>
<path d="M41.5381 437.678C39.6436 438.881 37.9075 439.724 35.4514 440.916C35.4514 437.984 35.4514 436.266 35.4514 434.351C38.4467 433.695 41.1505 433.138 41.5381 437.678Z" fill="#659CF2"/>
<path d="M118.953 443.259C119.695 439.811 122.153 439.058 124.167 440.416C125.623 441.399 126.632 444.117 126.507 445.97C126.431 447.088 123.845 448.808 122.309 448.897C118.848 449.097 118.798 446.261 118.953 443.259Z" fill="#5F98F5"/>
<path d="M317.81 93.7513C319.826 94.1903 322.567 94.4828 322.952 95.5931C323.503 97.1773 322.677 99.5717 321.708 101.179C321.348 101.776 317.681 101.312 317.638 101.018C317.297 98.7117 317.468 96.3292 317.81 93.7513Z" fill="#D75B5B"/>
<path d="M323 104.006C323.168 103.85 323.318 103.668 323.468 103.487C323.411 103.693 323.353 103.898 323.12 104.018C322.945 103.931 322.982 103.981 323 104.006Z" fill="#D55353"/>
<path d="M572.715 455.749C570.738 455.921 567.596 456.023 567.517 455.579C567.134 453.432 567.32 451.065 567.926 448.954C568.056 448.501 571.965 448.42 572.078 448.792C572.718 450.898 572.734 453.195 572.715 455.749Z" fill="#6AAB77"/>
</svg>
